<svg width="27" height="27" viewBox="0 0 27 27" fill="none" xmlns="http://www.w3.org/2000/svg">
<g clip-path="url(#clip0_511_142)">
<path d="M23.5673 15.8081C23.258 11.7814 21.3832 9.25799 19.7292 7.03123C18.1977 4.96974 16.875 3.18953 16.875 0.563463C16.875 0.352526 16.7569 0.159729 16.5696 0.063067C16.3817 -0.0341752 16.1559 -0.0182494 15.9851 0.105887C13.5011 1.88335 11.4285 4.87914 10.7046 7.73755C10.2019 9.72759 10.1354 11.9648 10.1261 13.4424C7.83216 12.9524 7.31252 9.52108 7.30703 9.48369C7.28119 9.30572 7.17246 9.15083 7.01425 9.06625C6.85441 8.98277 6.66652 8.97671 6.50447 9.05691C6.38418 9.11513 3.55187 10.5543 3.38708 16.3002C3.37553 16.4914 3.375 16.6831 3.375 16.8748C3.375 22.4571 7.91728 26.9992 13.5 26.9992C13.5077 26.9997 13.5159 27.0008 13.5225 26.9992C13.5247 26.9992 13.5269 26.9992 13.5296 26.9992C19.0987 26.9832 23.625 22.4473 23.625 16.8748C23.625 16.5941 23.5673 15.8081 23.5673 15.8081ZM13.5 25.8742C11.6389 25.8742 10.125 24.2616 10.125 22.2792C10.125 22.2117 10.1245 22.1435 10.1294 22.0601C10.1519 21.2241 10.3107 20.6534 10.4848 20.2738C10.8111 20.9747 11.3945 21.619 12.3421 21.619C12.653 21.619 12.9046 21.3674 12.9046 21.0565C12.9046 20.2557 12.9211 19.3318 13.1205 18.4979C13.2979 17.7586 13.722 16.972 14.2592 16.3415C14.4982 17.1599 14.964 17.8223 15.4188 18.4688C16.0698 19.3938 16.7427 20.3501 16.8608 21.9809C16.8679 22.0776 16.8751 22.1749 16.8751 22.2792C16.875 24.2615 15.3611 25.8742 13.5 25.8742Z" fill="#FFA927"/>
</g>
<defs>
<clipPath id="clip0_511_142">
<rect width="27" height="27" fill="white"/>
</clipPath>
</defs>
</svg>
