<svg width="139" height="51" viewBox="0 0 139 51" fill="none" xmlns="http://www.w3.org/2000/svg">
<path d="M23.3411 37.0064C23.3411 36.7295 23.433 36.4834 23.5863 36.3296C23.7396 36.145 23.9849 36.0835 24.2914 36.0835H27.725C27.9702 36.0835 28.1848 36.1757 28.3994 36.3296C28.614 36.4834 28.706 36.7295 28.706 37.0064V46.7585C28.706 46.943 28.6753 47.0969 28.5834 47.2507C28.4914 47.4045 28.3381 47.5583 28.1235 47.6814H28.0929C28.0929 47.6814 28.0929 47.6814 28.0622 47.6814C27.3878 48.1428 26.6826 48.5735 25.9162 48.9427C25.1498 49.3119 24.3527 49.6195 23.525 49.8656C22.6973 50.1117 21.8389 50.2963 20.9805 50.4501C20.0914 50.5732 19.233 50.6655 18.344 50.6655C16.8725 50.6655 15.4316 50.4809 14.052 50.081C12.6725 49.7118 11.3849 49.158 10.1893 48.4505C8.99366 47.7429 7.92067 46.9123 6.93966 45.9279C5.95864 44.9434 5.13091 43.8667 4.4258 42.6669C3.72069 41.4671 3.16887 40.175 2.80098 38.7907C2.4331 37.4063 2.21851 35.9604 2.21851 34.4837C2.21851 33.0071 2.40244 31.5612 2.80098 30.1768C3.19952 28.7924 3.72069 27.5004 4.4258 26.3006C5.13091 25.1008 5.95864 23.9933 6.93966 23.0089C7.92067 22.0244 8.99367 21.163 10.2199 20.4555C11.4156 19.7479 12.7031 19.1942 14.0827 18.825C15.4623 18.4251 16.9031 18.2405 18.3747 18.2405C19.3863 18.2405 20.3673 18.3328 21.379 18.5174C22.3907 18.7019 23.3411 18.948 24.2608 19.3172C24.598 19.471 25.0272 19.6248 25.5177 19.8402C26.0082 20.0555 26.4681 20.2709 26.8973 20.5478C27.3264 20.7939 27.6943 21.0707 28.0009 21.3476C28.3075 21.6245 28.4608 21.8706 28.4608 22.1475C28.4608 22.2705 28.3994 22.4551 28.2768 22.7012C28.1542 22.9473 28.0009 23.2242 27.7863 23.5318C27.6024 23.8395 27.3878 24.1779 27.1425 24.4855C26.8972 24.8239 26.6827 25.1316 26.4374 25.3777C26.2228 25.6545 26.0082 25.8699 25.8243 26.0545C25.6403 26.2391 25.487 26.3313 25.3951 26.3313C25.3031 26.3313 25.2111 26.3006 25.0885 26.2698C24.9659 26.2391 24.8432 26.1775 24.7206 26.0545C23.8316 25.4392 22.8199 24.947 21.7162 24.5778C20.6126 24.2086 19.4783 24.0241 18.3133 24.0241C16.8112 24.0241 15.4316 24.3009 14.1747 24.8854C12.9177 25.4392 11.8447 26.2083 10.925 27.1927C10.036 28.1464 9.33089 29.2847 8.80972 30.546C8.28856 31.8073 8.0433 33.1609 8.0433 34.5453C8.0433 35.9912 8.31922 37.3448 8.87104 38.6061C9.42286 39.8674 10.1586 40.9749 11.0783 41.9286C11.998 42.8822 13.071 43.6206 14.328 44.1435C15.5542 44.6973 16.8725 44.9742 18.2827 44.9742C18.8038 44.9742 19.325 44.9434 19.8155 44.8511C20.306 44.7588 20.7965 44.6665 21.2564 44.5435C21.6856 44.4204 22.0841 44.2974 22.452 44.1435C22.7892 43.9897 23.0958 43.8359 23.3104 43.7129V37.0064H23.3411Z" fill="#F7981D"/>
<path d="M34.7454 19.502C34.7454 18.6407 35.1746 18.21 36.0023 18.21H39.5585C39.957 18.21 40.2636 18.3023 40.5088 18.5176C40.7541 18.7329 40.8767 19.0406 40.8767 19.4713V22.3015C40.8767 22.6399 40.7541 22.9476 40.5395 23.2245C40.3249 23.5013 39.9877 23.6552 39.5891 23.6552H36.0329C35.1746 23.6552 34.776 23.1937 34.776 22.3015V19.502H34.7454ZM34.7454 29.8387C34.7454 29.4695 34.8373 29.1619 35.0519 28.9158C35.2665 28.6696 35.5731 28.5466 35.9716 28.5466H39.4972C39.6505 28.5466 39.8037 28.5774 39.9877 28.6389C40.141 28.7004 40.2942 28.7927 40.4169 28.9158C40.5395 29.0388 40.6621 29.1619 40.7234 29.3157C40.8154 29.4695 40.8461 29.6541 40.8461 29.8387V48.9122C40.8461 49.7736 40.4169 50.1735 39.5278 50.1735H36.0023C35.1439 50.1735 34.7454 49.7428 34.7454 48.9122V29.8387Z" fill="#3F0182" fill-opacity="0.45"/>
<path d="M48.6022 23.3166C48.6022 22.0552 48.7862 20.8555 49.1847 19.6864C49.5526 18.5174 50.1351 17.5022 50.8708 16.6101C51.6066 15.7179 52.4957 15.0103 53.5686 14.4874C54.6416 13.9644 55.8372 13.6875 57.1861 13.6875H57.4008C57.7993 13.6875 58.1365 13.8106 58.3511 14.0567C58.5657 14.3028 58.6883 14.6412 58.6883 15.0719V17.9944C58.6883 18.3944 58.5657 18.7635 58.3511 19.0404C58.1365 19.3173 57.8299 19.4711 57.4621 19.4711C57.2475 19.4711 56.9715 19.5326 56.665 19.6249C56.3278 19.7172 56.0212 19.9018 55.7453 20.1171C55.4387 20.3325 55.1934 20.6401 54.9789 20.9785C54.7643 21.3477 54.6723 21.7476 54.6723 22.2398V25.6854H57.738C58.1365 25.6854 58.4737 25.7777 58.6883 25.993C58.9029 26.2083 59.0256 26.5468 59.0256 27.039V29.6539C59.0256 30.1461 58.9029 30.5153 58.6883 30.7614C58.4737 31.0075 58.1365 31.1306 57.738 31.1306H54.6723V48.8197C54.6723 49.2812 54.519 49.6196 54.2431 49.8349C53.9365 50.081 53.63 50.1733 53.2621 50.1733H49.9818C49.5526 50.1733 49.246 50.0503 49.0008 49.7734C48.7555 49.4965 48.6636 49.1889 48.6636 48.7889V31.1306H46.5789C46.1804 31.1306 45.8431 31.0075 45.5979 30.7614C45.3526 30.5153 45.23 30.1461 45.23 29.6539V27.039C45.23 26.5468 45.3526 26.1776 45.5979 25.993C45.8431 25.7777 46.1804 25.6854 46.5789 25.6854H48.6636V23.3166H48.6022Z" fill="#3F0182" fill-opacity="0.45"/>
<path d="M73.9248 50.1732C72.8211 50.1732 71.7788 49.9886 70.7978 49.6502C69.8167 49.3118 68.9584 48.8503 68.2533 48.2351C67.5175 47.6198 66.9657 46.8507 66.5365 45.9585C66.1073 45.0664 65.8927 44.0512 65.8927 42.8822V39.3751V31.0381H63.4708C63.0722 31.0381 62.7657 30.9458 62.5511 30.7613C62.3365 30.5767 62.2445 30.269 62.2445 29.8383V26.7004C62.2445 26.3005 62.3365 25.9929 62.5511 25.8391C62.7657 25.6852 63.0722 25.5929 63.4708 25.5929H65.8927C65.8927 24.8546 65.8927 24.3316 65.8927 23.5933C65.8927 22.855 65.8927 22.1166 65.8927 21.3476C65.8927 21.0707 65.9846 20.8553 66.1686 20.6707C66.3525 20.5169 66.6284 20.3631 66.9963 20.2401C67.2416 20.1478 67.5175 20.0555 67.8547 19.9324C68.1919 19.8094 68.5292 19.6863 68.897 19.594C69.2649 19.471 69.6022 19.3787 69.9394 19.3171C70.2766 19.2249 70.5525 19.1941 70.7978 19.1941C71.227 19.1941 71.5335 19.3171 71.6562 19.5633C71.7788 19.8094 71.8708 20.117 71.8708 20.5169C71.8708 21.4091 71.8708 22.3012 71.8708 23.1934C71.8708 24.0855 71.8708 24.7316 71.8708 25.6237H74.9058C75.2736 25.6237 75.5496 25.716 75.7642 25.9006C75.9481 26.0852 76.0707 26.3928 76.0707 26.7927V29.8076C76.0707 30.269 75.9788 30.5767 75.7642 30.792C75.5802 30.9766 75.2736 31.0997 74.9058 31.0997H71.8094C71.8094 32.0226 71.8094 32.9147 71.8094 33.5608C71.8094 34.2068 71.8094 32.1149 71.8094 32.6071C71.8094 33.0993 71.8094 33.5608 71.8094 33.9914C71.8094 34.4221 71.8094 34.8836 71.8094 35.3758C71.8094 35.868 71.8094 36.4525 71.8094 37.0678C71.8094 37.6831 71.8094 38.483 71.8094 39.4059C71.8094 39.4366 71.8094 39.4674 71.8094 39.4982C71.8094 39.5289 71.8094 39.5597 71.8094 39.5904V42.3592C71.8094 43.2821 71.9934 43.9589 72.3613 44.3896C72.7291 44.7895 73.3116 45.0049 74.1393 45.0049C74.4459 45.0049 74.6605 45.0972 74.8445 45.3125C75.0284 45.5279 75.0897 45.774 75.0897 46.0816V49.0349C75.0897 49.4041 74.9977 49.681 74.7832 49.8963C74.5686 50.1116 74.2926 50.1732 73.9248 50.1732Z" fill="#3F0182" fill-opacity="0.45"/>
<path d="M80.8533 46.0816C80.8533 45.6817 80.9146 45.3433 81.0066 45.0664C81.0985 44.7896 81.3744 44.6357 81.773 44.6357H85.0839C85.2678 44.6357 85.4211 44.6357 85.6051 44.6665C85.789 44.6665 85.9423 44.728 86.0956 44.7896C86.2489 44.8511 86.3715 44.9434 86.4635 45.0664C86.5554 45.1895 86.6167 45.3741 86.6167 45.5894V48.7273C86.6167 48.9119 86.6168 49.0965 86.5861 49.2811C86.5861 49.4657 86.5248 49.6195 86.4635 49.7426C86.4021 49.8964 86.3102 49.9887 86.1876 50.081C86.0649 50.1732 85.881 50.204 85.6664 50.204H82.3555C81.865 50.204 81.4971 50.1425 81.2212 50.0502C80.9452 49.9579 80.8533 49.681 80.8533 49.2503V46.0816Z" fill="#3F0182" fill-opacity="0.45"/>
<path d="M92.932 27.2543C92.932 26.8543 93.0853 26.5467 93.3306 26.3313C93.6065 26.116 93.913 26.0237 94.2196 26.0237H96.9174C97.2853 26.0237 97.5306 26.116 97.7145 26.3313C97.8984 26.5467 98.0517 26.7928 98.1437 27.1312C98.2357 27.4388 98.3276 27.7772 98.3583 28.1464C98.3889 28.5156 98.4503 28.8232 98.5116 29.1308C98.8181 28.7002 99.186 28.2695 99.5539 27.8388C99.9524 27.4081 100.382 27.0389 100.872 26.7313C101.363 26.3929 101.914 26.1468 102.558 25.9314C103.171 25.7468 103.877 25.6238 104.674 25.6238C105.379 25.6238 106.022 25.6545 106.574 25.7468C107.126 25.8391 107.678 25.9929 108.199 26.1775C108.72 26.3621 109.211 26.6082 109.701 26.9159C110.192 27.2235 110.713 27.5927 111.295 27.9926C111.541 28.1464 111.755 28.331 111.909 28.5156C112.093 28.7002 112.185 28.9463 112.185 29.2231C112.185 29.3462 112.154 29.4693 112.123 29.5923C112.093 29.7154 112.031 29.8384 111.939 29.9615L110.192 32.7302C110.069 32.884 109.947 32.9763 109.793 33.0379C109.64 33.0994 109.517 33.1301 109.395 33.1301C109.18 33.1301 108.966 33.0686 108.751 32.9456C108.291 32.6994 107.862 32.4533 107.494 32.238C107.126 32.0226 106.728 31.8073 106.36 31.6535C105.992 31.4997 105.624 31.3766 105.225 31.2843C104.827 31.192 104.398 31.1613 103.938 31.1613C102.681 31.1613 101.608 31.5612 100.75 32.361C99.8911 33.1609 99.3087 34.2684 99.0021 35.6835V48.912C99.0021 49.7733 98.5729 50.1733 97.6838 50.1733H94.189C93.2999 50.1733 92.8707 49.7426 92.8707 48.912V27.2543H92.932Z" fill="#3F0182" fill-opacity="0.45"/>
<path d="M138.519 49.3734C138.519 49.5272 138.457 49.6502 138.365 49.7425C138.273 49.8348 138.12 49.8964 137.967 49.9271C137.814 49.9579 137.63 49.9886 137.446 49.9886C137.262 49.9886 137.108 49.9886 136.955 49.9886H134.809C134.411 49.9886 134.104 49.8656 133.89 49.5887C133.706 49.3118 133.552 49.035 133.491 48.6966L133.246 46.7584C132.939 47.2199 132.541 47.6814 132.081 48.1121C131.621 48.5428 131.069 48.9119 130.425 49.2503C129.782 49.5887 129.046 49.8348 128.249 50.0502C127.421 50.2348 126.501 50.3578 125.459 50.3578C123.773 50.3578 122.301 50.0502 121.014 49.4657C119.726 48.8504 118.653 48.0505 117.795 47.0046C116.936 45.9586 116.262 44.728 115.802 43.3129C115.342 41.8978 115.128 40.3904 115.128 38.7599V27.3773C115.128 26.8543 115.25 26.4851 115.495 26.2083C115.741 25.9314 116.078 25.8083 116.538 25.8083H119.757C120.309 25.8083 120.707 25.9006 120.891 26.116C121.075 26.3313 121.167 26.7005 121.167 27.2542V38.6368C121.167 39.3752 121.29 40.1135 121.504 40.8211C121.749 41.5286 122.087 42.1747 122.547 42.7284C123.006 43.2822 123.589 43.7436 124.294 44.082C124.999 44.4204 125.796 44.605 126.746 44.605C127.39 44.605 128.065 44.4819 128.77 44.2666C129.475 44.0512 130.119 43.6821 130.701 43.2206C131.284 42.7592 131.774 42.1747 132.142 41.4671C132.51 40.7595 132.725 39.9597 132.725 39.006V28.0233C132.725 27.7772 132.725 27.5003 132.755 27.2542C132.786 26.9774 132.847 26.762 132.939 26.5467C133.031 26.3313 133.154 26.1467 133.307 26.0237C133.46 25.9006 133.706 25.8083 133.981 25.8083H137.476C137.936 25.8083 138.273 25.9314 138.488 26.1467C138.703 26.3621 138.825 26.7005 138.825 27.1004V48.7273C138.856 49.0042 138.733 49.2195 138.519 49.3734Z" fill="#3F0182" fill-opacity="0.45"/>
<path d="M16.6273 10.3957L16.5967 9.25746C16.5967 8.98058 16.4127 2.18179 20.7967 0.828187C21.8697 0.489785 23.0039 0.61284 23.985 1.13582C24.966 1.65881 25.7017 2.52019 26.039 3.59693C26.7134 5.81192 25.4872 8.14996 23.2799 8.82677C21.5631 9.34975 17.9149 10.1188 17.7616 10.1804L16.6273 10.3957ZM22.0536 2.55096C21.839 2.55096 21.5937 2.58172 21.3791 2.64325C20.1529 3.01241 19.2945 4.2122 18.8346 6.15032C18.6813 6.85788 18.5894 7.50392 18.5281 8.05767C19.7543 7.7808 21.655 7.35011 22.6974 7.01171C23.2799 6.82712 23.7397 6.42719 24.0463 5.90421C24.3222 5.35046 24.3835 4.73518 24.1996 4.15067C24.0156 3.56616 23.6171 3.1047 23.0959 2.79707C22.7587 2.64325 22.4215 2.55096 22.0536 2.55096Z" fill="#F7981D"/>
<path d="M16.6273 10.3958L15.5237 10.1496C15.3704 10.1189 11.7223 9.34979 10.0055 8.79604C7.79821 8.11924 6.57194 5.75042 7.24639 3.56619C7.92084 1.3512 10.2814 0.120648 12.458 0.797451C16.8726 2.15106 16.6886 8.94986 16.658 9.22673L16.6273 10.3958ZM11.2318 2.55099C10.8639 2.55099 10.496 2.64328 10.1588 2.82786C9.60695 3.10474 9.23907 3.59696 9.05513 4.18147C8.87119 4.76598 8.9325 5.38126 9.20841 5.93501C9.48432 6.48876 9.97484 6.85792 10.5573 7.04251C11.5996 7.38091 13.5003 7.8116 14.7266 8.08847C14.696 7.53473 14.604 6.85792 14.42 6.15035C13.9602 4.21223 13.1018 3.07397 11.9062 2.67404C11.6916 2.58175 11.4464 2.55099 11.2318 2.55099Z" fill="#F7981D"/>
<path d="M31.833 13.8718H1.39084C0.930986 13.8718 0.56311 13.5027 0.56311 13.0412V10.7955C0.56311 10.334 0.930986 9.96484 1.39084 9.96484H31.833C32.2929 9.96484 32.6608 10.334 32.6608 10.7955V13.0412C32.6301 13.5027 32.2622 13.8718 31.833 13.8718Z" fill="#F7981D"/>
</svg>
