<svg width="46" height="47" viewBox="0 0 46 47" fill="none" xmlns="http://www.w3.org/2000/svg">
<g clip-path="url(#clip0_511_312)">
<path d="M16.8873 21.9077C17.9493 21.9077 18.8102 21.0468 18.8102 19.9849C18.8102 18.9229 17.9493 18.062 16.8873 18.062C15.8254 18.062 14.9645 18.9229 14.9645 19.9849C14.9645 21.0468 15.8254 21.9077 16.8873 21.9077Z" fill="#16C1A1"/>
<path d="M29.103 29.7122C30.165 29.7122 31.0259 28.8513 31.0259 27.7894C31.0259 26.7274 30.165 25.8665 29.103 25.8665C28.0411 25.8665 27.1802 26.7274 27.1802 27.7894C27.1802 28.8513 28.0411 29.7122 29.103 29.7122Z" fill="#16C1A1"/>
<path d="M44.9571 26.4322L44.2596 25.4802C43.5055 24.4434 43.4867 23.0389 44.2313 21.9833L44.91 21.0218C45.9468 19.5514 45.4661 17.506 43.8731 16.6483L42.8363 16.0922C41.7052 15.4889 41.0831 14.2259 41.2999 12.9534L41.4978 11.7941C41.7995 10.022 40.4704 8.38196 38.6701 8.30656L37.4919 8.25943C36.21 8.20287 35.0978 7.33571 34.7396 6.10094L34.4097 4.96986C33.9101 3.23553 32.0062 2.34008 30.3472 3.05644L29.2633 3.5183C28.0851 4.02729 26.7089 3.72566 25.8512 2.76424L25.0688 1.88765C23.8718 0.5492 21.7698 0.558626 20.5822 1.92535L19.8093 2.81137C18.961 3.78222 17.5942 4.10269 16.4066 3.61256L15.3132 3.16012C13.6449 2.47204 11.7597 3.40519 11.279 5.13952L10.968 6.28003C10.6286 7.52422 9.53526 8.41024 8.25337 8.47622L7.07515 8.5422C5.27484 8.64588 3.97409 10.3048 4.30399 12.0768L4.52078 13.2362C4.75643 14.4992 4.15318 15.7717 3.03152 16.3938L2.00412 16.9688C0.430025 17.8454 -0.0224089 19.9002 1.0427 21.3517L1.7402 22.3037C2.49426 23.3406 2.51311 24.745 1.76848 25.8007L1.08982 26.7621C0.0529968 28.2325 0.533708 30.2779 2.12665 31.1356L3.16348 31.6917C4.29457 32.295 4.91666 33.558 4.69987 34.8305L4.50193 35.9899C4.20031 37.7619 5.52933 39.402 7.32965 39.4774L8.50786 39.5245C9.78976 39.5811 10.902 40.4482 11.2602 41.683L11.5901 42.8141C12.0896 44.5484 13.9936 45.4438 15.6525 44.7275L16.7365 44.2656C17.9147 43.7566 19.2909 44.0583 20.1486 45.0197L20.9309 45.8963C22.1374 47.2347 24.2394 47.2253 25.4176 45.8586L26.1905 44.9726C27.0388 44.0017 28.4055 43.6812 29.5932 44.1714L30.6866 44.6238C32.3549 45.3119 34.2401 44.3787 34.7208 42.6444L35.0318 41.5039C35.3711 40.2597 36.4645 39.3737 37.7464 39.3077L38.9246 39.2417C40.7249 39.138 42.0257 37.4791 41.6958 35.7071L41.479 34.5477C41.2434 33.2847 41.8466 32.0122 42.9683 31.3901L43.9957 30.8151C45.5698 29.948 46.0222 27.8932 44.9571 26.4322ZM12.2404 19.985C12.2404 17.4212 14.3141 15.3476 16.8779 15.3476C19.4417 15.3476 21.5153 17.4212 21.5153 19.985C21.5153 22.5488 19.4417 24.6225 16.8779 24.6225C14.3141 24.6225 12.2404 22.5394 12.2404 19.985ZM17.7733 31.9462C17.3775 32.4269 16.6611 32.4929 16.1804 32.097C15.6997 31.7012 15.6337 30.9848 16.0296 30.5041L28.1982 15.8471C28.594 15.3664 29.3104 15.3004 29.7911 15.6963C30.2718 16.0922 30.3378 16.8085 29.9419 17.2893L17.7733 31.9462ZM29.103 32.4269C26.5392 32.4269 24.4656 30.3533 24.4656 27.7895C24.4656 25.2257 26.5392 23.152 29.103 23.152C31.6668 23.152 33.7405 25.2257 33.7405 27.7895C33.7405 30.3533 31.6668 32.4269 29.103 32.4269Z" fill="#16C1A1"/>
<rect x="10.0625" y="12.3921" width="25.875" height="25.875" fill="#16C1A1"/>
</g>
<defs>
<clipPath id="clip0_511_312">
<rect width="46" height="46.0086" fill="white" transform="translate(0 0.89209)"/>
</clipPath>
</defs>
</svg>
