<svg width="25" height="25" viewBox="0 0 25 25" fill="none" xmlns="http://www.w3.org/2000/svg">
<path d="M24.4572 11.3792C24.9493 10.8996 25.123 10.1958 24.9108 9.54149C24.698 8.88721 24.1439 8.42015 23.4631 8.32103L17.4098 7.44147C17.152 7.40393 16.9292 7.24223 16.8141 7.00845L14.1078 1.52337C13.804 0.907129 13.1872 0.52417 12.4999 0.52417C11.8131 0.52417 11.1963 0.907129 10.8925 1.52337L8.18572 7.00845C8.07058 7.24223 7.84731 7.40393 7.5895 7.44147L1.53624 8.32153C0.855923 8.42015 0.301758 8.88721 0.089003 9.54149C-0.123252 10.1958 0.0504568 10.8996 0.542547 11.3792L4.9223 15.6483C5.10903 15.8305 5.19463 16.0929 5.15058 16.3492L4.11684 22.3779C4.0007 23.0552 4.27352 23.7265 4.82969 24.131C5.38536 24.536 6.10873 24.5885 6.71796 24.2677L12.1315 21.4212C12.3622 21.3001 12.6376 21.3001 12.8683 21.4212L18.2823 24.2677C18.5467 24.4068 18.833 24.4754 19.1178 24.4754C19.4878 24.4754 19.8562 24.3598 20.1706 24.131C20.7268 23.7265 20.9996 23.0552 20.8835 22.3779L19.8492 16.3497C19.8052 16.0929 19.8908 15.831 20.0775 15.6488L24.4572 11.3792ZM18.863 16.5189L19.8968 22.5471C19.9488 22.8505 19.8312 23.1403 19.5819 23.3215C19.3321 23.5022 19.0212 23.5243 18.7484 23.3821L13.3344 20.5352C13.0736 20.3985 12.7862 20.3294 12.4999 20.3294C12.2136 20.3294 11.9267 20.3985 11.6654 20.5357L6.2524 23.3821C5.97857 23.5243 5.6677 23.5022 5.4184 23.3215C5.1691 23.1403 5.05196 22.851 5.10352 22.5471L6.13726 16.5189C6.23688 15.9372 6.04415 15.3435 5.62164 14.932L1.24139 10.6623C1.02062 10.4471 0.945531 10.1437 1.04115 9.85086C1.13626 9.55751 1.37505 9.35627 1.67991 9.31172L7.73268 8.43216C8.31688 8.34756 8.82198 7.98112 9.0828 7.45148L11.7895 1.9664C11.9257 1.69007 12.1915 1.52537 12.4994 1.52537C12.8078 1.52537 13.0731 1.69007 13.2097 1.9664L15.9165 7.45148C16.1773 7.98112 16.6819 8.34756 17.2661 8.43216L23.3194 9.31172C23.6242 9.35627 23.863 9.55751 23.9581 9.85086C24.0533 10.1437 23.9787 10.4471 23.7579 10.6623L19.3782 14.9315C18.9556 15.3435 18.7629 15.9367 18.863 16.5189Z" fill="black"/>
</svg>
