<svg width="25" height="25" viewBox="0 0 25 25" fill="none" xmlns="http://www.w3.org/2000/svg">
<path d="M12.5 12.5322C5.91183 12.5322 0.551758 17.8924 0.551758 24.4805C0.551758 24.7673 0.784506 25 1.07127 25C1.35802 25 1.59077 24.7673 1.59077 24.4805C1.59077 18.4648 6.48438 13.5712 12.5001 13.5712C18.5158 13.5712 23.4094 18.4648 23.4094 24.4805C23.4094 24.7673 23.6421 25 23.9289 25C24.2157 25 24.4484 24.7673 24.4484 24.4805C24.4484 17.8913 19.0882 12.5322 12.5 12.5322Z" fill="black"/>
<path d="M12.5 0C9.34982 0 6.78564 2.56315 6.78564 5.71439C6.78564 8.86562 9.34987 11.4288 12.5 11.4288C15.6502 11.4288 18.2144 8.86562 18.2144 5.71439C18.2144 2.56315 15.6502 0 12.5 0ZM12.5 10.3898C9.92231 10.3898 7.82461 8.2921 7.82461 5.71439C7.82461 3.13667 9.92231 1.03897 12.5 1.03897C15.0777 1.03897 17.1754 3.13667 17.1754 5.71439C17.1754 8.2921 15.0777 10.3898 12.5 10.3898Z" fill="black"/>
</svg>
